<svg xmlns="http://www.w3.org/2000/svg" xmlns:xlink="http://www.w3.org/1999/xlink" width="90" height="90" viewBox="0 0 90 90">
  <defs>
    <clipPath id="clip-path">
      <rect width="90" height="90" fill="none"/>
    </clipPath>
  </defs>
  <g id="white_icon" data-name="white icon" transform="translate(0 0)" clip-path="url(#clip-path)">
    <path id="Path_25" data-name="Path 25" d="M1249.138,322.071l-2.823-7.442-6.257,4.037,2.835,7.434Zm-36.285,12.893-6.257-4.037-2.823,7.442,6.244,4.029Zm-6.659,50.267,3.417-7.778,8.819,3.171-8.131-35.8-5.265,21.781-13.147-5.573Zm21.124-12.361,5.984,7.289,8.792-40.015-14.776,18.169L1213.6,346.466l7.745,33.693Zm26.322-50.658-2.752,3.907a40.032,40.032,0,1,1-14.752-6.471l1-4.661a45.021,45.021,0,1,0,16.508,7.225Zm-5.184,62.986,14.307-24.165-13.147,5.573-5.265-21.781-8.131,35.793,8.819-3.164Zm-5.632-52.18,2.835,7.434,6.244-4.029-2.823-7.442Z" transform="translate(-1182.723 -314)" fill="#fff"/>
  </g>
</svg>
